G04 #@! TF.FileFunction,Legend,Top*
%FSLAX46Y46*%
G04 Gerber Fmt 4.6, Leading zero omitted, Abs format (unit mm)*
G04 Created by KiCad (PCBNEW 4.0.7) date Thu May 24 21:41:31 2018*
%MOMM*%
%LPD*%
G01*
G04 APERTURE LIST*
%ADD10C,0.100000*%
%ADD11C,0.150000*%
%ADD12C,0.120000*%
G04 APERTURE END LIST*
D10*
D11*
X136501100Y-101003600D02*
X130501100Y-101003600D01*
X130501100Y-101003600D02*
X130501100Y-109003600D01*
X130501100Y-109003600D02*
X136501100Y-109003600D01*
X160501100Y-101003600D02*
X166501100Y-101003600D01*
X166501100Y-101003600D02*
X166501100Y-109003600D01*
X166501100Y-109003600D02*
X160501100Y-109003600D01*
X136501100Y-113003600D02*
X160501100Y-113003600D01*
X136501100Y-113003600D02*
X136501100Y-97003600D01*
X136501100Y-97003600D02*
X160501100Y-97003600D01*
X160501100Y-113003600D02*
X160501100Y-97003600D01*
D12*
X157092000Y-122162000D02*
X159642000Y-122162000D01*
X159642000Y-120612000D02*
X157092000Y-120612000D01*
X157092000Y-126734000D02*
X159642000Y-126734000D01*
X159642000Y-125184000D02*
X157092000Y-125184000D01*
X141926000Y-130496000D02*
X141926000Y-133156000D01*
X152146000Y-130496000D02*
X141926000Y-130496000D01*
X152146000Y-133156000D02*
X141926000Y-133156000D01*
X152146000Y-130496000D02*
X152146000Y-133156000D01*
X153416000Y-130496000D02*
X154746000Y-130496000D01*
X154746000Y-130496000D02*
X154746000Y-131826000D01*
X141650000Y-118626000D02*
X141650000Y-119626000D01*
X140290000Y-119626000D02*
X140290000Y-118626000D01*
X153662000Y-122092000D02*
X152662000Y-122092000D01*
X152662000Y-120732000D02*
X153662000Y-120732000D01*
X153662000Y-126664000D02*
X152662000Y-126664000D01*
X152662000Y-125304000D02*
X153662000Y-125304000D01*
X135232000Y-124082000D02*
X135232000Y-124282000D01*
X131092000Y-121282000D02*
X130882000Y-121482000D01*
X131092000Y-122582000D02*
X130882000Y-122382000D01*
X132382000Y-121282000D02*
X131092000Y-121282000D01*
X130882000Y-121482000D02*
X130882000Y-122382000D01*
X131092000Y-122582000D02*
X132382000Y-122582000D01*
X132382000Y-119832000D02*
X132382000Y-125532000D01*
X135232000Y-121082000D02*
X135232000Y-122782000D01*
X134182000Y-119232000D02*
X133392000Y-119232000D01*
X133392000Y-126132000D02*
X134182000Y-126132000D01*
X148220000Y-116754000D02*
X146420000Y-116754000D01*
X146420000Y-119974000D02*
X148870000Y-119974000D01*
D11*
X157090000Y-92154000D02*
X140090000Y-92154000D01*
X140090000Y-92154000D02*
X140090000Y-86154000D01*
X157090000Y-86154000D02*
X140090000Y-86154000D01*
X157090000Y-92154000D02*
X157090000Y-86154000D01*
X147715386Y-105432171D02*
X147858243Y-105479790D01*
X147905862Y-105527410D01*
X147953481Y-105622648D01*
X147953481Y-105765505D01*
X147905862Y-105860743D01*
X147858243Y-105908362D01*
X147763005Y-105955981D01*
X147382052Y-105955981D01*
X147382052Y-104955981D01*
X147715386Y-104955981D01*
X147810624Y-105003600D01*
X147858243Y-105051219D01*
X147905862Y-105146457D01*
X147905862Y-105241695D01*
X147858243Y-105336933D01*
X147810624Y-105384552D01*
X147715386Y-105432171D01*
X147382052Y-105432171D01*
X148239195Y-104955981D02*
X148810624Y-104955981D01*
X148524909Y-105955981D02*
X148524909Y-104955981D01*
X149667767Y-105955981D02*
X149096338Y-105955981D01*
X149382052Y-105955981D02*
X149382052Y-104955981D01*
X149286814Y-105098838D01*
X149191576Y-105194076D01*
X149096338Y-105241695D01*
X162739195Y-111146457D02*
X164263005Y-111146457D01*
X132739195Y-99146457D02*
X134263005Y-99146457D01*
X133501100Y-99908362D02*
X133501100Y-98384552D01*
X157503905Y-120114381D02*
X157503905Y-119114381D01*
X157742000Y-119114381D01*
X157884858Y-119162000D01*
X157980096Y-119257238D01*
X158027715Y-119352476D01*
X158075334Y-119542952D01*
X158075334Y-119685810D01*
X158027715Y-119876286D01*
X157980096Y-119971524D01*
X157884858Y-120066762D01*
X157742000Y-120114381D01*
X157503905Y-120114381D01*
X159027715Y-120114381D02*
X158456286Y-120114381D01*
X158742000Y-120114381D02*
X158742000Y-119114381D01*
X158646762Y-119257238D01*
X158551524Y-119352476D01*
X158456286Y-119400095D01*
X157503905Y-124686381D02*
X157503905Y-123686381D01*
X157742000Y-123686381D01*
X157884858Y-123734000D01*
X157980096Y-123829238D01*
X158027715Y-123924476D01*
X158075334Y-124114952D01*
X158075334Y-124257810D01*
X158027715Y-124448286D01*
X157980096Y-124543524D01*
X157884858Y-124638762D01*
X157742000Y-124686381D01*
X157503905Y-124686381D01*
X158456286Y-123781619D02*
X158503905Y-123734000D01*
X158599143Y-123686381D01*
X158837239Y-123686381D01*
X158932477Y-123734000D01*
X158980096Y-123781619D01*
X159027715Y-123876857D01*
X159027715Y-123972095D01*
X158980096Y-124114952D01*
X158408667Y-124686381D01*
X159027715Y-124686381D01*
X155198381Y-132159333D02*
X155912667Y-132159333D01*
X156055524Y-132206953D01*
X156150762Y-132302191D01*
X156198381Y-132445048D01*
X156198381Y-132540286D01*
X156198381Y-131159333D02*
X156198381Y-131730762D01*
X156198381Y-131445048D02*
X155198381Y-131445048D01*
X155341238Y-131540286D01*
X155436476Y-131635524D01*
X155484095Y-131730762D01*
X139972381Y-119292666D02*
X139496190Y-119626000D01*
X139972381Y-119864095D02*
X138972381Y-119864095D01*
X138972381Y-119483142D01*
X139020000Y-119387904D01*
X139067619Y-119340285D01*
X139162857Y-119292666D01*
X139305714Y-119292666D01*
X139400952Y-119340285D01*
X139448571Y-119387904D01*
X139496190Y-119483142D01*
X139496190Y-119864095D01*
X139972381Y-118340285D02*
X139972381Y-118911714D01*
X139972381Y-118626000D02*
X138972381Y-118626000D01*
X139115238Y-118721238D01*
X139210476Y-118816476D01*
X139258095Y-118911714D01*
X152995334Y-120414381D02*
X152662000Y-119938190D01*
X152423905Y-120414381D02*
X152423905Y-119414381D01*
X152804858Y-119414381D01*
X152900096Y-119462000D01*
X152947715Y-119509619D01*
X152995334Y-119604857D01*
X152995334Y-119747714D01*
X152947715Y-119842952D01*
X152900096Y-119890571D01*
X152804858Y-119938190D01*
X152423905Y-119938190D01*
X153376286Y-119509619D02*
X153423905Y-119462000D01*
X153519143Y-119414381D01*
X153757239Y-119414381D01*
X153852477Y-119462000D01*
X153900096Y-119509619D01*
X153947715Y-119604857D01*
X153947715Y-119700095D01*
X153900096Y-119842952D01*
X153328667Y-120414381D01*
X153947715Y-120414381D01*
X152995334Y-124986381D02*
X152662000Y-124510190D01*
X152423905Y-124986381D02*
X152423905Y-123986381D01*
X152804858Y-123986381D01*
X152900096Y-124034000D01*
X152947715Y-124081619D01*
X152995334Y-124176857D01*
X152995334Y-124319714D01*
X152947715Y-124414952D01*
X152900096Y-124462571D01*
X152804858Y-124510190D01*
X152423905Y-124510190D01*
X153328667Y-123986381D02*
X153947715Y-123986381D01*
X153614381Y-124367333D01*
X153757239Y-124367333D01*
X153852477Y-124414952D01*
X153900096Y-124462571D01*
X153947715Y-124557810D01*
X153947715Y-124795905D01*
X153900096Y-124891143D01*
X153852477Y-124938762D01*
X153757239Y-124986381D01*
X153471524Y-124986381D01*
X153376286Y-124938762D01*
X153328667Y-124891143D01*
X137716762Y-124015333D02*
X137764381Y-123872476D01*
X137764381Y-123634380D01*
X137716762Y-123539142D01*
X137669143Y-123491523D01*
X137573905Y-123443904D01*
X137478667Y-123443904D01*
X137383429Y-123491523D01*
X137335810Y-123539142D01*
X137288190Y-123634380D01*
X137240571Y-123824857D01*
X137192952Y-123920095D01*
X137145333Y-123967714D01*
X137050095Y-124015333D01*
X136954857Y-124015333D01*
X136859619Y-123967714D01*
X136812000Y-123920095D01*
X136764381Y-123824857D01*
X136764381Y-123586761D01*
X136812000Y-123443904D01*
X136764381Y-123110571D02*
X137764381Y-122872476D01*
X137050095Y-122681999D01*
X137764381Y-122491523D01*
X136764381Y-122253428D01*
X137764381Y-121348666D02*
X137764381Y-121920095D01*
X137764381Y-121634381D02*
X136764381Y-121634381D01*
X136907238Y-121729619D01*
X137002476Y-121824857D01*
X137050095Y-121920095D01*
X146558095Y-120716381D02*
X146558095Y-121525905D01*
X146605714Y-121621143D01*
X146653333Y-121668762D01*
X146748571Y-121716381D01*
X146939048Y-121716381D01*
X147034286Y-121668762D01*
X147081905Y-121621143D01*
X147129524Y-121525905D01*
X147129524Y-120716381D01*
X148129524Y-121716381D02*
X147558095Y-121716381D01*
X147843809Y-121716381D02*
X147843809Y-120716381D01*
X147748571Y-120859238D01*
X147653333Y-120954476D01*
X147558095Y-121002095D01*
X147231267Y-93797381D02*
X146897933Y-93321190D01*
X146659838Y-93797381D02*
X146659838Y-92797381D01*
X147040791Y-92797381D01*
X147136029Y-92845000D01*
X147183648Y-92892619D01*
X147231267Y-92987857D01*
X147231267Y-93130714D01*
X147183648Y-93225952D01*
X147136029Y-93273571D01*
X147040791Y-93321190D01*
X146659838Y-93321190D01*
X147659838Y-93273571D02*
X147993172Y-93273571D01*
X148136029Y-93797381D02*
X147659838Y-93797381D01*
X147659838Y-92797381D01*
X148136029Y-92797381D01*
X148897934Y-93273571D02*
X148564600Y-93273571D01*
X148564600Y-93797381D02*
X148564600Y-92797381D01*
X149040791Y-92797381D01*
X149564600Y-92797381D02*
X149564600Y-93035476D01*
X149326505Y-92940238D02*
X149564600Y-93035476D01*
X149802696Y-92940238D01*
X149421743Y-93225952D02*
X149564600Y-93035476D01*
X149707458Y-93225952D01*
X150326505Y-92797381D02*
X150326505Y-93035476D01*
X150088410Y-92940238D02*
X150326505Y-93035476D01*
X150564601Y-92940238D01*
X150183648Y-93225952D02*
X150326505Y-93035476D01*
X150469363Y-93225952D01*
M02*
